PathFileType	4	(X/Y/Z)	c:/Users/goper/Files/vsCode/490R/osim_files/C15/C15_SSWS_05.trc
DataRate	CameraRate	NumFrames	NumMarkers	Units                	OrigDataRate	OrigDataStartFrame	OrigNumFrames
250.00	250.00	7	36	mm	250.0	1972	2629
                Frame#	Time	LPSIS			LASIS			LTH1			LTH2			LTH3			LTH4			LLFE			LMFE			LSH1			LSH2			LSH3			LSH4			LLMAL			LMMAL			LCAL			LMTP5			LTOE			LMTP1			RPSIS			RASIS			RTH1			RTH2			RTH3			RTH4			RLFE			RMFE			RSH1			RSH2			RSH3			RSH4			RLMAL			RMMAL			RCAL			RMTP1			RTOE			RMTP5		
		X1	Y1	Z1	X2	Y2	Z2	X3	Y3	Z3	X4	Y4	Z4	X5	Y5	Z5	X6	Y6	Z6	X7	Y7	Z7	X8	Y8	Z8	X9	Y9	Z9	X10	Y10	Z10	X11	Y11	Z11	X12	Y12	Z12	X13	Y13	Z13	X14	Y14	Z14	X15	Y15	Z15	X16	Y16	Z16	X17	Y17	Z17	X18	Y18	Z18	X19	Y19	Z19	X20	Y20	Z20	X21	Y21	Z21	X22	Y22	Z22	X23	Y23	Z23	X24	Y24	Z24	X25	Y25	Z25	X26	Y26	Z26	X27	Y27	Z27	X28	Y28	Z28	X29	Y29	Z29	X30	Y30	Z30	X31	Y31	Z31	X32	Y32	Z32	X33	Y33	Z33	X34	Y34	Z34	X35	Y35	Z35	X36	Y36	Z36

1972	7.88400	-2022.71533	1031.03638	289.52670	-2187.27686	1008.27716	356.97083	-2101.69287	617.26373	405.63223	-2100.93726	572.19702	391.25006	-2152.78198	624.61401	400.60474	-2152.77197	579.50604	390.82608	-2111.90649	495.07654	368.91461	-2113.24854	483.14771	248.81818	-2040.23535	393.79599	383.43530	-2031.75378	348.63156	383.08221	-2098.16479	380.10825	378.67294	-2084.69751	337.24191	381.94025	-2011.82056	89.22690	312.60910	-2031.33264	116.87234	224.65915	-1948.39014	66.43565	268.61383	-2131.93481	43.47978	329.44629	-2186.68359	64.96716	265.02936	-2144.44141	37.61354	207.38797	-2024.26501	1028.06567	168.57741	-2181.44043	1008.55334	107.57401	-2251.52686	662.17847	31.22631	-2273.50073	619.83728	38.87626	-2307.26270	684.22522	42.22317	-2321.73340	638.61230	44.45058	-2313.99487	536.69196	64.65514	-2313.35718	516.83191	184.65430	-2206.84839	468.19907	57.95586	-2190.56738	428.27332	54.60958	-2259.94824	436.50305	48.90699	-2235.35840	404.81152	44.42007	-2109.43384	172.83980	104.65351	-2157.42017	179.56302	185.67523	-2048.59302	173.18936	159.81873	-2228.34424	72.04454	170.95248	-2260.49707	80.58664	113.31663	-2183.92212	73.33168	61.13035
1973	7.88800	-2026.08765	1030.98499	289.32040	-2190.66235	1008.02649	357.02689	-2103.65479	617.24628	405.63351	-2102.74463	572.15918	391.14334	-2154.68311	624.37115	400.44730	-2153.92725	579.26855	390.64691	-2113.37451	494.96729	368.90637	-2114.58301	482.99710	248.88466	-2040.18250	392.98779	382.55127	-2032.61011	348.75531	383.06522	-2099.18359	380.08618	378.68915	-2085.22437	337.19504	381.81818	-2011.95972	89.36008	312.58990	-2031.84473	116.66505	224.56636	-1948.43018	66.57034	268.52615	-2131.94019	43.49875	329.45114	-2186.70117	64.92798	265.03513	-2144.36719	37.70480	207.36409	-2028.27393	1027.82190	168.45956	-2185.27222	1008.53320	107.65472	-2255.76880	662.30121	31.44806	-2277.81470	620.06091	39.12134	-2311.44214	684.50262	42.48833	-2326.14551	638.98669	44.77914	-2318.59058	537.04315	65.08450	-2317.93530	517.09338	184.84819	-2212.97583	465.95599	57.92784	-2196.48315	425.99432	54.47015	-2266.31934	435.67664	49.04879	-2243.64526	402.71533	44.88662	-2122.02246	168.26401	104.38824	-2169.94849	176.12053	185.45032	-2060.93237	166.97163	159.66017	-2243.57129	70.56799	170.13377	-2275.23267	80.18388	112.52206	-2198.89429	71.02223	60.47192
1974	7.89200	-2029.41675	1030.95862	289.02869	-2193.90479	1007.81293	357.06305	-2105.62134	617.23938	405.58545	-2104.43506	572.13354	391.21585	-2156.84644	624.08020	400.50275	-2155.89233	579.03497	390.24826	-2114.68237	494.83411	368.93121	-2116.00830	482.88889	248.88545	-2041.26697	393.08246	382.53354	-2033.39954	348.87039	382.99313	-2100.04810	380.01031	378.67703	-2085.99023	337.15906	381.74744	-2012.10120	89.52675	312.56848	-2031.43140	116.88495	224.13342	-1948.30139	66.89422	268.89844	-2131.95508	43.50963	329.46149	-2186.76782	64.90176	265.05798	-2145.84985	37.58791	208.81812	-2031.92310	1027.83398	168.23349	-2189.06641	1008.42780	107.66078	-2259.79639	662.44403	31.54754	-2282.35474	620.29822	39.43888	-2315.61108	684.74445	42.69233	-2330.44751	639.32233	45.08257	-2322.63965	537.26135	65.68092	-2322.35815	517.16638	185.05128	-2218.04858	463.88666	57.90626	-2203.16504	423.33548	54.34829	-2272.74756	434.81396	49.16228	-2250.79419	401.05838	44.96720	-2133.40137	164.14099	103.75201	-2182.41260	172.63411	185.17162	-2074.08423	160.56828	159.55270	-2258.90137	69.22030	169.30161	-2290.11426	79.88122	111.63506	-2214.14917	68.62711	59.62547
1975	7.89600	-2033.05615	1030.78882	288.82791	-2197.32544	1007.54700	357.12445	-2107.43140	617.42139	405.76791	-2105.95166	571.98944	390.97531	-2158.63403	623.95795	400.29132	-2157.69019	578.80280	390.13269	-2116.02441	494.67856	368.93704	-2117.31665	482.72867	248.91885	-2042.15271	393.16870	382.41370	-2034.30420	348.92731	382.92618	-2100.94336	379.90823	378.64951	-2086.89819	337.09802	381.70758	-2012.22461	89.64818	312.55798	-2031.64990	117.00687	224.06100	-1948.32825	66.98173	268.87576	-2131.93726	43.49313	329.47882	-2186.78174	64.83443	265.07532	-2145.74268	37.91467	208.59846	-2035.53894	1027.67151	167.98836	-2192.90454	1008.29889	107.73486	-2263.28857	662.56500	31.66401	-2286.35229	620.24548	39.69222	-2319.64771	684.83051	42.92176	-2334.49805	639.39178	45.37536	-2326.68921	537.33167	66.20476	-2326.81958	517.27832	185.28806	-2223.42505	461.54022	57.74557	-2209.49683	420.60959	54.15273	-2278.91284	433.75299	49.27355	-2257.78931	399.29446	45.01699	-2146.11377	159.63585	103.44722	-2194.98877	169.14032	184.80440	-2086.88770	154.37627	159.44984	-2274.34473	67.99217	168.42003	-2304.69189	79.50970	110.78431	-2228.94238	66.48954	58.63304
1976	7.90000	-2036.53809	1030.63184	288.59265	-2200.65698	1007.25305	357.18488	-2109.39014	617.36444	405.79214	-2107.67310	571.88177	390.96109	-2160.58984	623.68671	400.14062	-2159.55566	578.54132	390.04660	-2117.47534	494.52859	368.91599	-2118.63037	482.62024	248.87352	-2043.16907	393.25507	382.37537	-2035.15466	349.04794	382.81888	-2101.96533	379.83105	378.63489	-2087.68335	337.01221	381.65793	-2012.33582	89.81259	312.48199	-2031.89111	117.13790	223.97267	-1948.35730	67.10009	268.77908	-2131.94385	43.47795	329.48615	-2186.81372	64.75979	265.07382	-2145.77100	37.90959	208.60687	-2039.28247	1027.50439	167.75880	-2196.70605	1008.11542	107.73620	-2268.14429	662.13647	32.09576	-2290.58691	620.21454	40.02875	-2323.53564	684.80249	43.23214	-2338.56079	639.47943	45.78677	-2330.72266	537.31903	66.75385	-2331.15063	517.28577	185.56703	-2228.86060	459.03824	57.46595	-2215.98267	417.77560	53.88547	-2285.11865	432.70615	49.38860	-2264.70703	397.43948	45.04752	-2158.96802	155.25200	103.13612	-2207.83594	165.80457	184.53799	-2099.78906	148.35112	159.24153	-2289.75757	66.96551	167.64447	-2319.88379	79.44588	109.76188	-2244.18848	64.49256	57.87990
1977	7.90400	-2040.05090	1030.44275	288.36884	-2203.88379	1006.91394	357.22330	-2111.51953	617.07458	405.49249	-2109.52710	571.94098	391.02148	-2162.53174	623.38531	400.05362	-2161.27075	578.25433	389.96759	-2118.81201	494.39075	368.89526	-2120.05859	482.42917	248.88412	-2044.12317	393.29260	382.25235	-2036.01453	349.13370	382.74918	-2102.82031	379.69824	378.62485	-2088.36011	336.98538	381.62396	-2012.45300	89.93772	312.42407	-2032.04846	117.22738	223.90158	-1948.38708	67.16309	268.77444	-2131.90942	43.45845	329.50671	-2186.85522	64.71503	265.09579	-2145.75928	37.88018	208.58699	-2043.04065	1027.35254	167.53630	-2200.58765	1007.93988	107.80392	-2272.19580	661.78638	32.24995	-2294.58911	620.01813	40.33769	-2327.39258	684.71350	43.51253	-2342.48535	639.36023	46.21432	-2334.69263	537.20935	67.33401	-2335.32617	517.16968	185.90273	-2234.18701	456.39285	57.13462	-2222.50562	414.69168	53.53412	-2291.20337	431.51202	49.53939	-2271.60107	395.51929	45.07325	-2172.11426	151.06958	103.17523	-2220.72339	162.57849	184.15234	-2113.17578	142.38297	159.22661	-2304.90137	65.79723	166.78783	-2334.72729	79.28719	108.79768	-2259.28394	62.47380	57.11073
1978	7.90800	-2043.55994	1030.25610	288.06067	-2207.23682	1006.57300	357.31854	-2113.50220	616.95850	405.47006	-2111.40845	571.83923	391.03464	-2164.54736	623.12433	399.96875	-2163.06787	577.96191	389.84613	-2120.20605	494.20670	368.89786	-2121.24536	482.31213	248.80363	-2045.15637	393.42935	382.15933	-2036.94507	349.17621	382.67136	-2103.85522	379.53061	378.57114	-2089.17822	336.93155	381.61426	-2012.57263	90.10371	312.35632	-2032.54163	117.33218	224.10152	-1948.41809	67.20230	268.75549	-2131.94482	43.44437	329.50421	-2186.87720	64.63066	265.08795	-2145.75391	37.84567	208.56221	-2046.48792	1027.33545	167.09416	-2204.44263	1007.73981	107.81723	-2275.85083	661.59454	32.59337	-2298.34277	619.65881	40.74076	-2331.24414	684.51196	43.83893	-2346.24536	639.19916	46.61706	-2338.52368	537.03546	67.90445	-2339.29199	517.06689	186.26654	-2239.39868	453.67480	56.70902	-2229.01953	411.55368	53.18855	-2297.28955	430.32199	49.68517	-2278.58691	393.50073	45.12160	-2185.12280	146.81667	102.73376	-2233.64697	159.38721	183.82298	-2126.68945	136.54269	159.19722	-2320.47241	64.78364	165.94226	-2349.65454	79.27044	107.76089	-2274.14844	60.82380	56.37621
